<?xml version="1.0" standalone="no"?>
<!DOCTYPE svg PUBLIC "-//W3C//DTD SVG 20010904//EN"
 "http://www.w3.org/TR/2001/REC-SVG-20010904/DTD/svg10.dtd">
<svg version="1.0" xmlns="http://www.w3.org/2000/svg"
 width="880.000000pt" height="880.000000pt" viewBox="0 0 880.000000 880.000000"
 preserveAspectRatio="xMidYMid meet">
<metadata>
Created by potrace 1.11, written by Peter Selinger 2001-2013
</metadata>
<g transform="translate(0.000000,880.000000) scale(0.100000,-0.100000)"
fill="#000000" stroke="none">
<path d="M6670 8761 l-55 -6 3 -55 c6 -97 -17 -295 -42 -374 -55 -175 -162
-276 -350 -330 -128 -37 -226 -46 -641 -56 -395 -10 -489 -20 -637 -66 -138
-43 -213 -88 -308 -184 -94 -93 -141 -170 -184 -301 -30 -94 -56 -263 -56
-369 l0 -80 68 0 c37 0 84 3 105 7 34 5 38 8 33 29 -8 30 10 191 29 269 44
176 152 309 315 388 106 51 170 70 327 94 92 15 195 17 703 18 565 1 601 2
710 23 387 72 580 229 661 537 22 86 40 368 23 377 -5 3 -41 3 -80 0 l-71 -4
-6 -142 c-9 -242 -68 -378 -209 -482 -101 -74 -285 -128 -500 -147 -64 -6 -72
0 -30 25 138 82 251 270 281 468 16 102 24 273 17 324 -8 51 0 48 -106 37z"/>
<path d="M3500 6305 l0 -585 -1333 0 c-1145 0 -1340 -2 -1383 -15 -105 -31
-174 -126 -174 -240 1 -102 55 -186 150 -229 45 -20 57 -20 1390 -21 l1345 0
3 -581 2 -582 116 -7 c63 -4 156 -4 205 0 50 4 138 4 195 0 l104 -7 0 -213 c0
-233 5 -264 60 -338 16 -22 28 -42 26 -44 -2 -2 -55 -10 -117 -18 -240 -29
-330 -67 -385 -161 -44 -74 -32 -166 28 -220 36 -34 98 -61 169 -76 80 -16
393 -15 639 3 382 27 657 12 761 -42 111 -56 86 -179 -47 -228 -77 -29 -254
-59 -429 -71 -410 -30 -580 -71 -686 -167 -77 -69 -84 -93 -87 -305 l-4 -188
259 -1 c342 0 593 -13 668 -33 236 -63 412 -237 470 -464 38 -148 35 -379 -5
-538 -52 -201 -175 -361 -340 -443 -135 -66 -216 -83 -422 -88 -98 -3 -189 -2
-203 1 l-25 6 0 595 0 595 -200 0 -200 0 0 -744 0 -745 53 -5 c201 -22 449
-29 624 -17 658 43 1020 317 1139 861 23 104 26 416 6 523 -35 187 -114 345
-235 474 -242 256 -574 348 -1161 322 -116 -5 -223 -11 -238 -15 -65 -13 -15
87 61 126 80 40 253 69 546 90 83 6 202 20 265 31 188 32 262 62 341 136 62
58 83 118 77 215 -11 153 -124 241 -353 278 -62 10 -538 15 -553 6 -10 -6
-379 -21 -497 -20 -127 2 -238 20 -268 45 l-22 19 24 20 c33 28 105 47 256 66
150 19 262 45 320 75 22 12 60 28 85 35 70 21 140 80 175 149 l30 58 5 231 5
231 305 0 305 0 3 583 2 582 33 1 c17 1 624 2 1347 4 1214 1 1318 3 1354 19
99 42 156 125 156 224 0 83 -19 131 -70 183 -85 85 30 79 -1482 79 l-1338 0 0
585 0 585 -925 0 -925 0 0 -585z"/>
<path d="M3250 6731 c-69 -21 -131 -74 -166 -141 -14 -26 -19 -56 -19 -115 0
-96 21 -142 89 -202 51 -45 101 -63 175 -63 l51 0 0 265 0 265 -52 -1 c-29 0
-64 -4 -78 -8z"/>
<path d="M5430 6471 l0 -272 58 6 c83 10 147 41 192 92 149 170 45 425 -181
441 l-69 5 0 -272z"/>
<path d="M3145 2208 c-148 -18 -415 -111 -430 -150 -5 -12 69 -265 80 -276 2
-3 37 11 77 30 139 67 256 93 386 86 100 -6 157 -27 217 -79 103 -91 101 -257
-6 -353 -84 -77 -192 -108 -379 -111 l-125 -2 2 -138 c2 -76 5 -141 8 -143 3
-3 80 -9 173 -12 137 -6 177 -11 224 -29 116 -45 205 -126 228 -209 19 -69 12
-181 -14 -238 -27 -58 -83 -117 -138 -145 -155 -79 -407 -66 -641 35 -44 20
-82 34 -83 33 -4 -5 -84 -276 -84 -286 0 -28 208 -107 350 -132 116 -21 378
-18 475 5 283 66 466 215 536 436 29 91 29 240 0 331 -50 159 -185 287 -356
338 -22 7 -47 15 -55 17 -8 3 22 22 68 45 191 93 292 248 292 450 0 235 -154
412 -417 480 -88 22 -275 31 -388 17z"/>
</g>
</svg>
